<?xml version="1.0" encoding="UTF-8" standalone="no"?>
<svg
   width="64px"
   height="64px"
   viewBox="0 0 64 64"
   id="Layer_1"
   style="enable-background:new 0 0 64 64;"
   version="1.1"
   xml:space="preserve"
   sodipodi:docname="MailIcon.svg"
   inkscape:version="1.1.1 (3bf5ae0d25, 2021-09-20)"
   xmlns:inkscape="http://www.inkscape.org/namespaces/inkscape"
   xmlns:sodipodi="http://sodipodi.sourceforge.net/DTD/sodipodi-0.dtd"
   xmlns="http://www.w3.org/2000/svg"
   xmlns:svg="http://www.w3.org/2000/svg"><defs
     id="defs23" /><sodipodi:namedview
     id="namedview21"
     pagecolor="#505050"
     bordercolor="#ffffff"
     borderopacity="1"
     inkscape:pageshadow="0"
     inkscape:pageopacity="0"
     inkscape:pagecheckerboard="1"
     showgrid="false"
     inkscape:zoom="13.640625"
     inkscape:cx="32"
     inkscape:cy="31.963345"
     inkscape:window-width="2736"
     inkscape:window-height="1790"
     inkscape:window-x="-11"
     inkscape:window-y="-11"
     inkscape:window-maximized="1"
     inkscape:current-layer="Layer_1" /><g
     id="g18"
     style="fill:#ffffff;fill-opacity:1;opacity:0.5"
     transform="matrix(1.2562276,0,0,1.0534492,-8.1994116,-1.7104008)"><g
       id="g4"
       style="fill:#ffffff;fill-opacity:1"><path
         d="M 49.622,55.747 H 14.378 C 11.001,55.747 8.254,53 8.254,49.623 V 14.378 c 0,-3.377 2.747,-6.124 6.124,-6.124 h 35.244 c 3.377,0 6.124,2.747 6.124,6.124 v 35.244 c 10e-4,3.377 -2.747,6.125 -6.124,6.125 z M 14.378,13.22 c -0.638,0 -1.158,0.519 -1.158,1.157 v 35.244 c 0,0.638 0.519,1.158 1.158,1.158 h 35.244 c 0.638,0 1.157,-0.519 1.157,-1.158 V 14.378 c 0,-0.638 -0.519,-1.157 -1.157,-1.157 H 14.378 Z"
         style="fill:#ffffff;fill-opacity:1"
         id="path2" /></g><g
       id="g8"
       style="fill:#ffffff;fill-opacity:1"><path
         d="M 38.559,38.201 H 25.441 c -0.806,0 -1.562,-0.391 -2.028,-1.05 L 8.709,16.355 C 8.413,15.936 8.253,15.435 8.253,14.921 v -0.543 c 0,-3.377 2.748,-6.124 6.125,-6.124 h 35.245 c 3.377,0 6.125,2.747 6.125,6.124 v 0.543 c 0,0.514 -0.159,1.014 -0.456,1.434 L 40.586,37.152 c -0.465,0.658 -1.221,1.049 -2.027,1.049 z M 26.727,33.234 H 37.273 L 50.76,14.161 c -0.102,-0.535 -0.573,-0.94 -1.137,-0.94 H 14.378 c -0.564,0 -1.035,0.405 -1.137,0.94 z M 53.263,14.921 h 0.002 z"
         style="fill:#ffffff;fill-opacity:1"
         id="path6" /></g><g
       id="g12"
       style="fill:#ffffff;fill-opacity:1"><path
         d="m 52.722,47.356 c -0.789,0 -1.565,-0.375 -2.047,-1.074 L 40.489,31.505 c -0.778,-1.129 -0.494,-2.676 0.635,-3.454 1.129,-0.778 2.676,-0.494 3.454,0.635 l 10.186,14.777 c 0.778,1.129 0.494,2.676 -0.635,3.454 -0.43,0.297 -0.921,0.439 -1.407,0.439 z"
         style="fill:#ffffff;fill-opacity:1"
         id="path10" /></g><g
       id="g16"
       style="fill:#ffffff;fill-opacity:1"><path
         d="m 11.331,47.356 c -0.486,0 -0.977,-0.142 -1.407,-0.439 C 8.795,46.139 8.51,44.592 9.289,43.463 L 19.475,28.686 c 0.778,-1.129 2.325,-1.414 3.454,-0.635 1.129,0.778 1.414,2.325 0.635,3.454 L 13.378,46.282 c -0.482,0.699 -1.258,1.074 -2.047,1.074 z"
         style="fill:#ffffff;fill-opacity:1"
         id="path14" /></g></g></svg>
